<?xml version="1.0" encoding="UTF-8"?><svg id="Layer_1" xmlns="http://www.w3.org/2000/svg" viewBox="0 0 1190.55 841.89"><defs><style>.cls-1{fill:#ad9d43;stroke-width:0px;}</style></defs><path class="cls-1" d="m153.38,418.42c-10.67,0-20.27-2.75-28.78-8.25-8.52-5.5-15.22-13.5-20.1-24.01s-7.33-23.26-7.33-38.25,2.51-28.07,7.52-38.5c5.01-10.43,11.75-18.33,20.23-23.71,8.47-5.38,17.96-8.07,28.47-8.07,8.07,0,14.67,1.34,19.8,4.03s9.23,5.93,12.28,9.72c3.06,3.79,5.4,7.31,7.03,10.57h1.34v-68.07h32.02v182.09h-31.41v-21.63h-1.96c-1.71,3.34-4.12,6.87-7.21,10.57-3.1,3.71-7.21,6.89-12.34,9.53-5.13,2.65-11.65,3.97-19.55,3.97Zm8.92-26.4c6.84,0,12.65-1.85,17.41-5.56,4.77-3.71,8.41-8.88,10.94-15.52,2.52-6.64,3.79-14.36,3.79-23.16s-1.24-16.6-3.73-23.16c-2.49-6.56-6.11-11.63-10.88-15.22-4.77-3.58-10.61-5.38-17.54-5.38s-13.04,1.87-17.84,5.62c-4.81,3.75-8.41,8.92-10.82,15.52-2.41,6.6-3.61,14.14-3.61,22.61s1.22,16.05,3.67,22.73c2.44,6.68,6.05,11.94,10.82,15.77,4.77,3.83,10.69,5.74,17.78,5.74Z"/><path class="cls-1" d="m308.44,418.67c-13.69,0-25.5-2.87-35.44-8.62-9.94-5.74-17.58-13.87-22.91-24.38-5.34-10.51-8-22.89-8-37.15s2.65-26.46,7.94-37.09c5.29-10.63,12.75-18.92,22.36-24.87,9.61-5.95,20.94-8.92,33.97-8.92,8.39,0,16.35,1.34,23.89,4.03,7.54,2.69,14.22,6.84,20.04,12.47,5.82,5.62,10.41,12.77,13.75,21.45,3.34,8.68,5.01,19,5.01,30.98v10.02h-111.94v-21.63h95.93l-15.03,6.35c0-7.74-1.18-14.48-3.54-20.23-2.36-5.74-5.87-10.24-10.51-13.5-4.64-3.26-10.43-4.89-17.35-4.89s-12.83,1.63-17.72,4.89c-4.89,3.26-8.6,7.64-11.12,13.14-2.53,5.5-3.79,11.63-3.79,18.39v15.03c0,8.31,1.44,15.42,4.34,21.33,2.89,5.91,6.97,10.41,12.22,13.5,5.26,3.1,11.39,4.64,18.39,4.64,4.56,0,8.74-.65,12.53-1.96,3.79-1.3,7.05-3.28,9.78-5.93,2.73-2.65,4.83-5.93,6.29-9.84l30.06,3.54c-1.96,7.9-5.56,14.81-10.82,20.71-5.26,5.91-11.98,10.47-20.16,13.69-8.19,3.22-17.58,4.83-28.17,4.83Z"/><path class="cls-1" d="m377.09,415.98v-20.41l70.27-88.36v-1.22h-68.07v-26.64h107.42v22.12l-66.85,86.65v1.22h69.17v26.64h-111.94Z"/><path class="cls-1" d="m520.78,260.16c-5.13,0-9.53-1.71-13.2-5.13s-5.5-7.54-5.5-12.34,1.83-9.04,5.5-12.47,8.07-5.13,13.2-5.13,9.41,1.71,13.08,5.13c3.67,3.42,5.5,7.54,5.5,12.34s-1.83,9.04-5.5,12.47c-3.67,3.42-8.03,5.13-13.08,5.13Zm-16.13,155.82v-136.63h32.14v136.63h-32.14Z"/><path class="cls-1" d="m591.67,336.05v79.93h-32.14v-136.63h31.53v23.34h1.59c3.09-7.66,7.96-13.75,14.6-18.27,6.64-4.52,15.09-6.78,25.36-6.78,9.45,0,17.68,2,24.69,5.99,7.01,3.99,12.44,9.84,16.31,17.54,3.87,7.7,5.8,17.01,5.8,27.92v86.89h-32.14v-81.88c0-9.12-2.36-16.27-7.09-21.45-4.73-5.17-11.24-7.76-19.55-7.76-5.62,0-10.61,1.22-14.97,3.67-4.36,2.44-7.78,5.97-10.27,10.57-2.49,4.6-3.73,10.25-3.73,16.93Z"/><path class="cls-1" d="m761.44,418.67c-13.69,0-25.5-2.87-35.44-8.62-9.94-5.74-17.58-13.87-22.91-24.38-5.34-10.51-8-22.89-8-37.15s2.65-26.46,7.94-37.09c5.29-10.63,12.75-18.92,22.36-24.87,9.61-5.95,20.94-8.92,33.97-8.92,8.39,0,16.35,1.34,23.89,4.03,7.54,2.69,14.22,6.84,20.04,12.47,5.82,5.62,10.41,12.77,13.75,21.45,3.34,8.68,5.01,19,5.01,30.98v10.02h-111.94v-21.63h95.93l-15.03,6.35c0-7.74-1.18-14.48-3.54-20.23-2.36-5.74-5.87-10.24-10.51-13.5-4.64-3.26-10.43-4.89-17.35-4.89s-12.83,1.63-17.72,4.89c-4.89,3.26-8.6,7.64-11.12,13.14-2.53,5.5-3.79,11.63-3.79,18.39v15.03c0,8.31,1.44,15.42,4.34,21.33,2.89,5.91,6.97,10.41,12.22,13.5,5.26,3.1,11.39,4.64,18.39,4.64,4.56,0,8.74-.65,12.53-1.96,3.79-1.3,7.05-3.28,9.78-5.93,2.73-2.65,4.83-5.93,6.29-9.84l30.06,3.54c-1.96,7.9-5.56,14.81-10.82,20.71-5.26,5.91-11.98,10.47-20.16,13.69-8.19,3.22-17.58,4.83-28.17,4.83Z"/><path class="cls-1" d="m434.44,616.8c-13.61,0-25.3-2.99-35.07-8.98-9.78-5.99-17.27-14.28-22.49-24.87-5.22-10.59-7.82-22.77-7.82-36.54s2.65-26.19,7.94-36.79c5.29-10.59,12.83-18.88,22.61-24.87,9.78-5.99,21.3-8.98,34.59-8.98,11.16,0,21.02,2.04,29.57,6.11,8.55,4.07,15.38,9.8,20.47,17.17,5.09,7.37,8,15.99,8.74,25.85h-30.8c-.82-4.4-2.41-8.35-4.77-11.85-2.36-3.5-5.44-6.27-9.23-8.31-3.79-2.04-8.29-3.06-13.5-3.06-6.6,0-12.37,1.77-17.29,5.32-4.93,3.54-8.78,8.62-11.55,15.22-2.77,6.6-4.16,14.5-4.16,23.71s1.34,17.29,4.03,24.01,6.52,11.9,11.49,15.52c4.97,3.63,10.79,5.44,17.48,5.44,7.09,0,13.1-2.08,18.03-6.23,4.93-4.16,8.09-9.9,9.47-17.23h30.8c-.73,9.7-3.59,18.25-8.55,25.66-4.97,7.42-11.69,13.22-20.16,17.41-8.47,4.19-18.41,6.29-29.82,6.29Z"/><path class="cls-1" d="m567.05,616.8c-13.36,0-24.93-2.93-34.71-8.8-9.78-5.87-17.33-14.09-22.67-24.69-5.34-10.59-8-22.89-8-36.91s2.67-26.46,8-37.09c5.34-10.63,12.89-18.88,22.67-24.75,9.78-5.87,21.35-8.8,34.71-8.8s24.93,2.93,34.71,8.8c9.78,5.87,17.35,14.12,22.73,24.75,5.38,10.63,8.07,23,8.07,37.09s-2.69,26.32-8.07,36.91c-5.38,10.59-12.95,18.82-22.73,24.69-9.78,5.87-21.35,8.8-34.71,8.8Zm0-25.91c7.41,0,13.52-1.97,18.33-5.93,4.81-3.95,8.41-9.31,10.82-16.07,2.4-6.76,3.61-14.26,3.61-22.49s-1.2-15.97-3.61-22.73c-2.41-6.76-6.01-12.12-10.82-16.07-4.81-3.95-10.92-5.93-18.33-5.93s-13.32,1.98-18.21,5.93c-4.89,3.95-8.54,9.31-10.94,16.07-2.41,6.76-3.61,14.34-3.61,22.73s1.2,15.73,3.61,22.49c2.4,6.76,6.05,12.12,10.94,16.07,4.89,3.95,10.96,5.93,18.21,5.93Z"/><path class="cls-1" d="m648.92,614.12v-136.63h31.16v22.98h1.47c2.44-7.98,6.72-14.12,12.83-18.39,6.11-4.28,13.08-6.42,20.9-6.42,1.71,0,3.69.08,5.93.24,2.24.16,4.09.37,5.56.61v29.57c-1.39-.49-3.54-.89-6.48-1.22-2.93-.33-5.74-.49-8.43-.49-5.95,0-11.24,1.26-15.89,3.79-4.64,2.53-8.29,5.99-10.94,10.39-2.65,4.4-3.97,9.53-3.97,15.4v80.17h-32.14Z"/><path class="cls-1" d="m768.45,534.19v79.93h-32.14v-136.63h31.53v23.34h1.59c3.09-7.66,7.96-13.75,14.6-18.27,6.64-4.52,15.09-6.78,25.36-6.78,9.45,0,17.68,2,24.69,5.99,7.01,3.99,12.44,9.84,16.31,17.54,3.87,7.7,5.8,17.01,5.8,27.92v86.89h-32.14v-81.88c0-9.12-2.36-16.27-7.09-21.45-4.73-5.17-11.24-7.76-19.55-7.76-5.62,0-10.61,1.22-14.97,3.67-4.36,2.44-7.78,5.97-10.27,10.57-2.49,4.6-3.73,10.25-3.73,16.93Z"/><path class="cls-1" d="m938.22,616.8c-13.69,0-25.5-2.87-35.44-8.62-9.94-5.74-17.58-13.87-22.91-24.38-5.34-10.51-8-22.89-8-37.15s2.65-26.46,7.94-37.09c5.29-10.63,12.75-18.92,22.36-24.87,9.61-5.95,20.94-8.92,33.97-8.92,8.39,0,16.35,1.34,23.89,4.03,7.54,2.69,14.22,6.84,20.04,12.47,5.82,5.62,10.41,12.77,13.75,21.45,3.34,8.68,5.01,19,5.01,30.98v10.02h-111.94v-21.63h95.93l-15.03,6.35c0-7.74-1.18-14.48-3.54-20.23-2.36-5.74-5.87-10.24-10.51-13.5-4.64-3.26-10.43-4.89-17.35-4.89s-12.83,1.63-17.72,4.89c-4.89,3.26-8.6,7.64-11.12,13.14-2.53,5.5-3.79,11.63-3.79,18.39v15.03c0,8.31,1.44,15.42,4.34,21.33,2.89,5.91,6.97,10.41,12.22,13.5,5.26,3.1,11.39,4.64,18.39,4.64,4.56,0,8.74-.65,12.53-1.96,3.79-1.3,7.05-3.28,9.78-5.93,2.73-2.65,4.83-5.93,6.29-9.84l30.06,3.54c-1.96,7.9-5.56,14.81-10.82,20.71-5.26,5.91-11.98,10.47-20.16,13.69-8.19,3.22-17.58,4.83-28.17,4.83Z"/><path class="cls-1" d="m1015.54,614.12v-136.63h31.16v22.98h1.47c2.44-7.98,6.72-14.12,12.83-18.39s13.08-6.42,20.9-6.42c1.71,0,3.69.08,5.93.24,2.24.16,4.09.37,5.56.61v29.57c-1.39-.49-3.54-.89-6.48-1.22-2.93-.33-5.74-.49-8.43-.49-5.95,0-11.24,1.26-15.89,3.79-4.64,2.53-8.29,5.99-10.94,10.39-2.65,4.4-3.97,9.53-3.97,15.4v80.17h-32.14Z"/></svg>